<mxfile host="65bd71144e">
    <diagram id="ox5FcZQMVOyPqmzPC7qm" name="第 1 页">
        <mxGraphModel dx="608" dy="483" grid="1" gridSize="10" guides="1" tooltips="1" connect="1" arrows="1" fold="1" page="1" pageScale="1" pageWidth="827" pageHeight="1169" math="0" shadow="0">
            <root>
                <mxCell id="0"/>
                <mxCell id="1" parent="0"/>
                <mxCell id="2" value="" style="shape=image;verticalLabelPosition=bottom;labelBackgroundColor=default;verticalAlign=top;aspect=fixed;imageAspect=0;image=data:image/png,iVBORw0KGgoAAAANSUhEUgAAA3oAAAGiCAYAAACxobQTAAAACXBIWXMAABYlAAAWJQFJUiTwAAAgAElEQVR4nOzdeZzN9f7A8dcYRJIUafklFHKFKG1KWrSnG26RSpZSUdkZexRCSSUlREmblBaVylYq6SqlpK6IKzshTZiZ8/vjO92xzD5n5syceT0fj/PwOd/v5/OZ99TMmfM+ny3m888/DyFJkiRJihoxoVDIRE+SJEmSokiRSAcgSZIkSQovEz1JkiRJijImepIkSZIUZUz0JEmSJCnKmOhJkiRJUpQx0ZMkSZKkKFN02dqkSMcgSZIkSQojR/QkSZIkKcp4YLokSZIkRRlH9CRJkiQpypjoSZIkSVKUMdGTJEmSpChjoidJkiRJUcZET5IkSZKijImeJEmSJEUZEz1JkiRJijImepIkSZIUZUz0JEmSJCnKmOhJkiRJUpQx0ZMkSZKkKGOiJ0mSJElRxkRPkiRJkqKMiZ4kSZIkRRkTPUmSJEmKMiZ6kiRJkhRlTPQkSZIkKcqY6EmSJElSlDHRkyRJkqQoY6InSZIkSVHGRE+SJEmSooyJniRJkiRFGRM9SZIkSYoyJnqSJEmSFGVM9CRJkiQpypjoSZIkSVKUMdGTJEmSpChjoidJkiRJUcZET5IkSZKijImeJEmSJEUZEz1JkiRJijImepIkSZIUZUz0JEmSJCnKmOhJkiRJUpQx0ZMkSZKkKGOiJ0mSJElRxkRPkiRJkqKMiZ4kSZIkRRkTPUmSJEmKMiZ6kiRJkhRlTPQkSZIkKcqY6EmSJElSlDHRkyRJkqQoY6InSZIkSVHGRE+SJEmSokzRSAcgSSpAtmyDbb8H5conQbFiqddbvxF27c58v8dXgNKlch6fJEkCICYUCoUiHYQkqQCY+irc2gXYEjxfsRyqVUm9buMb4aOZme/79degaZMchyhJkgJO3ZQkpW/HTrjtHrj1Vv6X5GVk1cZcDUmSJKXPqZuSpLQtWgyX3g27v0u+UANYnnG7lb8F/w54AG64OuP6lU7OboSSJCkVJnqSpEOFQjBsNPQdDMQDx8O0URC/B9q1Tb/tvn3AmqB8Vl04o3YuBytJkg7m1E1J0qH+jIe+cUA8NLwW1iyEls0z13bz1pTyceVzJTxJkpS+osvWJkU6BklSPlP0zyRO4wh+HzCYdW07EKIIrE3ihO1wdHKdVRtD7C556N+Q0j9u4u+JmCtD5Yn374wkSXnOqZuSpEMkFS/Gr7Pnseu0mllue9jmlA1b9pZzRE+SpEgoevpJzt6UJB3sMKhc69DLZVOKlSvEQGp/Q5L+TvQqUqNKCVi3HsZPgS+Xws/r4MTyUOtUuLkZnH92rkQvSVJh54ieJCm8NiUnetX/D159A266Hfgr5f5KYAEw9jG47kaY8iSULZP3cUqSFMVM9CRJ4bVxc/Dvil/hpluBI+DWVlCzOpQ5En74CZ54DVgLb78K5/0Xvp4FJUtGMmpJkqKKiZ4kKbw2/D11cx1c1QyefhgqnnRgncG9ofV98NbLsOIz6DsUHh2S56FKkhStXKAnSQqvPXuASnDxdTBzyqFJHsBRZeCVZ+CUc4PnoyfCjp15GaUkSVHNRE+SFF4vj4fQCpgzHYoVS7teiRIwqGPyk60w55M8CU+SpMLARE+SFDln10sp/7o2cnFIkhRlTPQkSZFz+OEp5fj4yMUhSVKUMdGTJIXP1u1w2b+Cx+tvZVz/l9Up5Yr/l2thSZJU2LjrpiQpfI4pCx8vA36BfQnQrEn69adOTymffVauhiZJUmHiiJ4kKbziWgX/LpgFD46CUCj1eu9/BM8+HZQb/xOqVs6b+CRJKgRM9CRJ4dWtI3BaUO7fF/7VHr5eCgkJkJAIK36GPkPgquZAInAsPPlQBAOWJCn6OHVTkhRex5SFH16FfzQHfoLXpwYPYoHiwP6brlSCOROg2qmRiFSSpKjliJ4kKfOKxAAlg0dMTNr1alSH3xdC9zigYvLFRFKSvOPgnvvhtwVw8YW5GbEkSYVSTCiU1uIJSZLCICEBlv0AGzZDKAmOrwDVq0LJkpGOTJKkqGWiJ0mSJElRxqmbkiRJkhRlTPQkKdrt3AVxg2HytEhHkncmT4Oeg2DT5khHIklSRJjoSVI0e+cDKHMBDH8Ift8Z6Wjyzh+7YeQoqHAGPDACdhSi712SJFyjJ0nRaf1G6NIfXpkCHAdvPg3XXxXpqPLW0mVwTx/47APgJHi0G9x1u5vASJIKBRM9SYomSUnBtMV2/YD1UP18eHsSVK0c6cgiIykJpk2HWwcAq4BqMKEn3NYCihWLdHSSJOUap25KUrRY8TM0agrt2gHrof09sGRW4U3yAIoUgVtuhG2LoHM3YCW0bw/HN4BXZkBiYqQjlCQpVziiJ0kF3d69MOpJ6PsgsBsoDZMeh9tbpn+oeWH09VK4sw989VHwvEYDeCQOrrzM/1aSpKhioidJBdlnX8ItXWHV4uB5mdowbyKcUTuyceVniYnw/CvQdiCwJrh2/hUwPA4uPC+ioUmSFC5O3ZSkgmjHTri3NzS4MCXJu74lrPrIJC8jsbHQ5mbY8iXcc39w7bMPoGEjuPpm+ObbiIYnSVI4OKInSQVJKAQz34MbegE/JV+MhVEPQ5eOwZo0Zc1XX8OdveHreSnXWrSGB3pCtVMjFpYkSTlhoidJBcW69XB/X3j9xf0uVoG5E6BRg4iFFRUSE+G5F+GOQcC65IvF4M4O0K8rnHRiBIOTJCnrTPQkKb9LTISJL0CH/sCmlOsXXgUvPw0nHBex0KLO5i3QbxiMf3K/i6WhRyfocS+UPyZioUmSlBUmepKUn/3wI7TvAZ/PPvB6774wpA8ULRqZuKLdosXQvg8sW7DfxXIwuAvc3wGOLB2x0CRJygwTPUnKj/bsgRGPw4AHgb/2u3EsvPEM/PPqSEVWeCQkwoTn4e5BwIb9blSEx7rDnbdByZIRCk6SpPSZ6ElSfvPJ59CqO6z96sDr1c+HtycV7gPQI2HjZogbAs89c9CNajCxN9x2kyOrkqR8x+3ZJCm/2L4D7ukRbPN/cJLX7m5YMsskLxIqlA8OoP9kPlTd/5y9n6BdWzjpQpg+E5KSIhaiJEkHc0RPkiItFII33oZmvYGVB90sDRPHBOe+xcREIjrtLyEBxk2C+x4Athx4r+aFMCoOrrjE/1eSpIgKhUz0JCmy1q6DTn3grZcPvVemdnB0Qt06eR+X0vfbBug9GF6YeOi9C6+CYXHQ4Jy8j0uSJEz0JClyEhPh6cnQaQCHjAwBNGkBz42Bo4/K68iUFfMWQttesGrxofeu/Rc82BvqnJ73cUmSCjUTPUmKhO9+gLY94KuPUrkZCyNHQNd7oIjLqAuEvXth7ETo+iCpJu2t2sCAnlCtSp6HJkkqnEz0JCkvxcfDsMdgyMNAfCoVKsPcidCoQV5HpnD472/QYxC8PCWVm8Xg7ruhTxf4vxPyOjJJUiFjoidJeWXeQrixG2z+OvX7Da6EV5+BE47L27gUfh/Ph1t6w4YlqdwsDb3vg26doNzReR6aJKlwCIU8XkGSctfW7XBnV7j4krSTvJ59YO50k7xocelFsHoejHwEKHvQzV0w/CEoXweGPgo7d0UgQElSYeCIniTlhlAIXnsTbooDVqVR6ViY8TTccE1eRqa8tGYtdB0Er09No0JFeLwH3HEblCiRl5FJkqKYUzclKTf8ugbuiYNZ09OuU/18eGuiG3QUFh/MgVa9YevSNCrUgOd6wi03QtGieRqaJCn6OHVTksIpIRGeGA+Vzk0/yWt7FyyZZZJXmFxxCfx3ATw0DCiTSoXl0KYNnNwQZrwFSUl5HaEkKco4oidJ4bD0O2jTHb6el06l0jDxMWjTCmJi8ioy5TerVkPngfDWy2nXqd0QRvaBxo38WZEkZZlTNyUpp/6MhwcfgWHDgX1p1ytVCz6ZCHXr5FloysdCIXjvQ7ixD+z+Lu16Da+F4b3hvPp5F5skqcAz0ZOknJizAJp2gx3fpl/vuhth8hNw9FF5E5cKjj/j4ZEnYcAwYHfa9Zq0gCE9oXbNPAtNklRwmehJUnZs3gq9HoDnnsmgYiw8PBy6d4IiLolWOn5eBff3hfdeT7/erXfAwK5wius7JUlpC4Ug5rs1iSZ6kpQZoRAV3p5B+U59gV8zqFyZ3157lm3nNMiLyBQNQiGO/fh9jm3bD/ghnYolib+9A+s63s9fFTx7UZJ0qFAoxkRPkjLj8LVrqBjXm6IL3siwbuKZV7B63Djijzs+DyJTtCn655+c+PTjlH5sBBCfTs2j2N2pE+vuvIe9Rx18MLskqTALhWKcuilJ6UpIgCeeha4PANszrt8jDh7qC8WK5XpoinIrfoZOfeGjmRlUPA6GdYGOd0DpUnkSmiQpf3ONniSlZ8lSaN0dli3IROVjYcZTcMN1uR6WCpFQCGa8Dc37Aj9lULkyPNkD2t8Chx2WF9FJkvIpEz1JSs2u3fDgKBjxMJCYcf2q58E7kzwAXbln1x8wbDQMe4T0p3MCxWvChF7QsjkUjc2T8CRJ+YuJniQdbPZcuK4b7P0+c/XbdIAnhkOpw3M3Lgnghx+hYx+Y927GdU+uD6Pj4Pqr3PVVkgoZEz1J+tumzdB9ILwwMZMNSsGEMdD2FoiJydXQpAOEQvDqG9CiH7Ay4/p1G8HIPnBJQ39WJamQMNGTFL1WrYbKlTKuFwrB1Ffhtr7A2sz1XaoWLJgI9epkPz4pp3bshAcfhVGjgH0Z17/4OhgeB2efmeuhSZIiKxQC53JIij5/xkPj1pCQwfq6lb9A4xvhttvIdJJ33Y2w5iOTPEVemSNh5CD49ktocGXG9ee+DeecD83awLLluR6eJCmyTPQkRZ/Hn4GVX8DS71K/v28fjHoSTj0XPn4rk53GwvAR8OYUOPqosIUq5Vitf8CCN+CFF4DKGdefMQ1qnQm33xuMfEuSopKJnqTo8tsGiBsZlBd8fuj9xUug1uXQoxuwI5OdVoI5H0Cv+93UQvlTkSJwy42wbRF07gFktNtmIkwZD1XqQOc4WL8xL6KUJOUh37FIii4DHwa2BOUPP0m5vusP6DYAzr4AVnyW+f7Ouxz+Ow8uvjCcUUq5o2wZGP0gfP0F1G+ciQZ/wZhH4YQ60H8obPs910OUJOUNN2ORFD2+Xgr1zt7vQjnYuxo+mgdX9wCyuC6pexwM7QvFioUvRimvJCXB8y9Dm4HAmkw2Oh4e7god23tkiCQVYO66KSl6hELQqCksmHXg9QZXwsL3s9hZOXh9HDRtErbwpIjZuh0GDoexj2WhURUY1xPatoLixXMtNElS7jDRkxQ93ngXmjbNeT+nnAuzJkK1U3Pel5SffPU1dIiDJXMz36ZULXimF9zUFIpmtO5PkpRfmOhJig579kCFC2DHtznrp/WdMPZhp6wpeiUmwuRp0P4BMn2kCMAp58AjcdDkSg9dl6QCwHP0JEWHsRNzmOSVgmefheceN8lTdIuNhXa3wqZFcGenzLdbuQj++U8462qY+0nwDkKSlK85oiepYNu0GSrUAzZlr33xmvDZJDjzjLCGJRUIi76C9nGwbEHW2l12PQyLg7Pq5k5ckqQccURPUsH3wEiyneRd+y/47WOTPBVe55wFX78PTz8DHJ/5dh/NhPrnQvN28MOPuRaeJCn7HNGTVHB99wPUPgtIzGLDWBg2FHrcG0xlkwQbN0Pfh2DiuCw2jIW2d8CAbnByxVwJTZKUNW7GIqngCoXg8puCkYWsGjoc4rqEPyYpGixcBO16w4rPstiwBHS+F3rfDxXK50pokqTMMdGTVHDNmg3XXJfNxrEQFwcDekCJEmENS4oKCQnw9HNw72CyPjX6GBhwH3S+G8qWyY3oJEkZMNGTVDDt3QsnXwQbluSsn1POhelPwBm1wxOXFG3Wb4ReQ+CFZ7PR+EQY1QXuape13Wx37YbSpbLx9SRJf3MzFkkF0/gpOU/yAFZ+AXUbwtBHgxEMSQc6vgI8/yTMmxOcpZcl66B7dzjiLBg/OfiAJjM69YZtv2c1UknSQRzRk1SwbNkG5c8C1mW/j1K14LLToVY1+Ec1qFEN/nEaFC8etjClqLNvX3BmZZchwJasty9TG8b1ghtvSH8TpJh/QIsLYNozHs4uSdnk1E1JBU/X/jB6RCYr14Cra0KdGikJXbWqTguTcmLdeugxCF6anL32p5wLo/vAtZcfmsjt2AlHJW/kMu1FaNk8J5FKUqFloiepYPnxJ6hRD9h30I1qcOXpUKs61KweJHTVq0KZIyMRpVQ4zFkAt8fB2q+y175+YxgRB40apFz79zdw1t9TRI+FVZ9CpZNzHKokFTYmepIKlju6wOp1UPs0qFkNalSH06q5s58UKXv3wuPjoceDwPbs9XH5DTC0N5x5Brz8OrS8OeVegyth3gwo6nmXkpQVJnqSJCnn1q6DrgNh+gvZ7+PG26BkCZgy/sDrD4+EnvflLD5JKmRM9CRJUvjMngs394KtS8PYaUn4al4w4idJyhSPV5AkSeFz+cXw3wUwdDgQrinV8dDkHtj9Z5j6k6TCwURPkiSFT4kSENcFVi2G61uGp8/f/g29B4enL0kqJJy6KUmSckcoBO9/BC37wI5vc97fu2/D1ZfnvB9JinKu0ZMkSbkvPh5GjYUBw4FdOeioEmz4FCqUD1NgkhSdXKMnSZJyX8mS0L87/OdLuKpZDjpaDXd0Dd7BSJLSZaInSZLyxilV4N0XYeZMKPKP7PXx9qsw4fnwxiVJUcipm5IkKe8t/Q7OuAjYnY3GZeHHT6B61XBHJUlRwambkiQp7839BM64nuwleQDboUVH2LcvnFFJUlRxRE8qLLZsg22/B+XKJ0GxYhm3+eFHWPw1rN8IR5SCKifDxRcG620kKatCIRg/Be7qBIQhSes/CAbH5ayPHTthziewdl2wacyJx0ODs6Fypcz3kZQEn30JP/4Em7fCMWWD0cYLzoXY2JzFJ0nZ4K6bUmEx9VW4tQuwJXi+YjlUq5J2/UWL4e5+8PW8VG4eC4PuhT5dMpcsShJAQgJ07Q9PPBrGTmPhkzlBQpVVO3ZC34dg7BRg+6H3L20CTz2c/mslBK+vrYdB0g+p3KwG0wZCy+ZZj0+ScsBET4p2O3bCvb3hhYkHXk8v0ZvwPNxxDymftleEeqfA7j2wYhGQGFxueDV8+AoUL55LwUuKKit/gfmfw/bfg9kF27bDlt+D2Qbrt8OKLcB6snz8QvGasGkelDky823WroNTr4O93ydfKAGn1IGjj4TFy5LjACgLn70N59U/tI9QCDp0g2fH7nfxNKh/Evy08cBzA3v2gYcHZunbkqScMNGTotmixXDp3bD7u+QLNYDlQTGtRG/BZ3DR5QRJXjV4cwRce3nK1KNf18A/28M384PnPeJgxKBc/TYkFSKhEMT/FSSD/3vsgG3bkv/dHiSJW3+HLdthw3b4fgvcczmMHZG5r5GQAHWvgmULgFjo0RN6dILy5YL7e/bAI2Oh799TQivDzq+g9BEH9vPIWOjeNSjXuwSeHQ716qTc//QLuLA1sDp4/sYb8M+rs/ffRZKyyERPikahEAwbDX0HA/HA8TBtFMTvgXZtgzppJXoNmsBnHwAnwn8+CrZCP9iOnXDmdbDyC6AsbP0Rjj4q974fSQqnl6bDza2C8rCHoXfn1OsNfwziegXlJ8dCx/Yp93bugjK1gPVQuyF88Vbqa5eXr4B/XAxshbqNYMkHYfxGJClt7ropRaM/45M/iY6HhtfCmoWZWx+ybn1ykgcM7JB6kgfB9Kg+dyQ/2Q7fLgtH1JKUN155J7lQFbp1TLve/R2AY4Lyp18eeO/jBfxveufIPmlvUFWjOrRJfv39el6w2Ysk5RETPSkqlYJHRsPc1+CkEzPXZN1vwInBo9EF6det+H8p5W3bshukJOW9DVuAE6HNJelvKFWyJJQ6IShvPmizlt/W87/XywbnpP/1Kp+UUt6+IxsBS1L2FI10AJLCrHgx+GYB1Dk9a+3OPhNCv2Su7srVKeUa1bP2dSQpkr54J+M6EKzV2/1jUK5T48B7HdsfOJUzPT/9/bp6EpxwXObaSFIYOKInRZtixbKe5GXVm3+vMzkJqp2au19LkiLh/Tn8b/fhc+tlr49df8DU5M2rrjsvLGFJUmaZ6EnKmrfeh/dnBOXx/T0MWFL0iY+HVv2D8hkXQdPrstfP0EeBlUAxGNIzXNFJUqYUXbY2KdIxSMoDJ2yHo5PLqzaG2F0y67/7pVavpvL19wGQVOsyll/eipCvIZKiSShE1S7dOGz3d0Asax8czo7fYoCsvdaV/3g2FYYHRz7sbn8/q46uCb5eSsojoVCMI3qSMuew7VuofMlNwK9AZVY/9QShIr6ESIoulUc8yGEzJgKwo/8IdtQ+I8t9HPXNv6nQ5nZgH0k1L2Zt97iMmkhS2BU9/STfqEmFQtmUYuUKMZCV3/1df8A/b4OEb4Fy8NXLVDkzjeMXJKmgemI8jB0alLv2oszgTpTJah8//gRNbga2w3H1KDL3RU4rf0SGzSQpnDxHT1LG4uPh2lthyVygBHwwFc7M+ifckpSvTXoR7rs3KLe8HUYOynofq1ZDjWbAGqAqfP4ylD8mbCFKUlaY6ElK29690KwtLJgFxMK0iXD5xZGOSpLC69U3oN0dQbnxP2HyE5DVqenr1kOt5sBPwInwzctQ6eRwRypJmWaiJyl1CYlw893w3gwgFp6bAC2bRzoqSQqvtz+Am9oAidDoGnhzMhQvnrU+Nm2G85rD7u+A4+CrGbl/zI0kZcBET9KhkpKgXWd4fWrwfPw4uP3myMYkSeH28Xxo0gqIhwZXwjtT4fCSWetj+w5odBOs/QooB19Md3q7pHzBRE/SgUIhuLc3PD8+eP7kU3BH68jGJEnhtnARXNYS2AX1G8OsqVDq8Kz1sesPuPxmWL4QOAYWTIdz6udGtJKUZSZ6kg7UezA8NSYojx4DHdtFNh5JCrclS+GCG4GtULcRzH4RjiydtT7i46HJbfDVR0BJmPMKXHheLgQrSdlTNNIBSMpHhoyEEUNTnp9QIdikID0VjoWLGuRuXJIULt8vhzObAxuC53e2gNlzMm53zRUpI35790Lz9jDv3eB5maqweUvGr5c1T4OaNbIduiRlhYmepMCq1TCg34HXbmqRcbsrm5roSSo4ug8mOP4g2d13Za7dLyugcqWg/PpbMGt6yr0d32bu9XLocBM9SXnGRE8qLIrEAMmbDMTEHHo/IZRyP0v9OgNcUgGSlM3Xuv1fNxOTsteHr5eS8lBMKBQKRToISZIkSVJ4hEJuxiJJkiRJUcdET5IkSZKijImeJEmSJEUZEz1JkiRJijImepIkSZIUZUz0JEmSJCnKmOhJkiRJUpQx0ZMkSZKkKGOiJ0mSJElRxkRPkiRJkqKMiZ4kSZIkRRkTPUmSJEmKMiZ6UjT7fQf0GQKTp+X+15o8DR4YAQkJuf+1JCkaTZ4GPQfB5q2RjkRSFDDRk6JRUhK88AqUPQeGPQg7duX+19ywCQb1h0uaw28bcv/rSVK0+WM3jBwBx9aDR8ZCfHykI5JUgMWEQqFQpIOQFEZLlsJdfWHxh0BV+GgsXHpR7n/dUAgGDIMHHwCqwNwJ0KhB7n9dSYomX/4bbu4CKxcBNWBaP7jxBoiNjXRkkgqQUMgRPSl6bN4KHXvCmWcHSd4NLWHT/LxJ8gBiYmBwHAx5CPgFLm4Mo54MRhclSZlz9pnw/Ycw+CFgNdzcCs64EuZ+EunIJBUwjuhJBV1CIkx6AToMBtYBZeHZEdDu1iD5ioQRj0OvHkH5+pbw3BgoWyYysUhSQfXdD9C6C3w9L3h+dXMY0Q9q1ohoWJLyv1DIRE8q2BYugg594fvkT3pPbwivjYXTqkU2LoAxz0Dn+4JymdowbyKcUTuyMUlSQZOQAE88C10HAjuAWLjrHhjQA46vEOnoJOVTTt2UCqrfNkDre+GChilJXu++8NU7+SPJA7i/A4wdF5R3fAt1L4FJU4NXHklS5hQtCl3uhhVfQMOrgUR4+gk4oS4MGQW7dkc6Qkn5lCN6UkGydy+MnQhdHwS2JF/Mww1XsmPiC9C+fcrztnfBE8Ph8JKRi0mSCqKkpOA19c4+pPwNqAIT+kDrlkFSKEk4dVMqWD6eD236wNqvUq41vRmeeQTKHR25uDLj+ZehdVsgMXhe/Xx4exJUrRzRsCSpQFq7Djr0gPdeT7lWuT6MHQhXXha59dmS8g0TPakg+HUNdHsAXp+638WyMHEUtGlVcP6gv/w6tGwN7Eu+cCzMeBpuuCaSUUlSwRQKBa+rN/cG1qZcb3QNPDIQ6tWJWGiSIs81elJ+Fh8PDz0Clc46MMmr3RB+/ATa3lJwkjyAFs1g+jTg7ymbm6BpU+j1AOzbl15LScq8v/4KzvScPC3SkeSumBho2Rw2fg4tWqdcn/ducMxO63thzdq020uKeiZ6Un4TCsHbH0D5C6FfH4Jd1pLF9YPF70L1qhELL0eaNYGZLwMlUq6NGAoXNw82mJGknFi6DE6/AoYMgk1bMqweFY4tDy+NhzffBE5Juf78eDi5LvR5ELbvSLO5pOjl1E0pP/npP9C5P7w346Ab1WDOU3DxhREJK+ze/wiuagHs2u9iZZg7ERo1iFRUkgqqhEQY8xR07wf8BcMehl73F6xZD+Gw7XfoPRieHXvQjYrwRE+4szUULx6R0CTlLdfoSfnFrj9g+BgYOgL468B7zW6Bp0fm/w1Xsurj+XDZvzhgxJJYeHg4dO8ERZxwICkTVq2GW+6Dzz4Ino97Gu5qE9GQIu6jeXBNV9j7/YHXy9SGif3hhmt9jZWinImeFGmhELz6BrQYCPx00M1jYOJIaHNz9H4qPW8hXPwvYOuB15u0gOfGwNFHRSQsSQVAKASTX4K2PQiOGigG0yYH69YUnK83cDiMHnHovfqN4bEBcP7ZeR+XpDxhoidF0rffw739YMGsQ+/VbgivjYNqpwWfxvkAACAASURBVOZ9XHlt4SK4oCkpZ0IlK1ULPpkIdd05TtJBNm4OjheY+VLyhdLw1otw3RURDStf+uxLaNHlwKN5/tbsFhjaF6pVyfu4JOUqd92UImH7DujSD+qck3qS12dAsOFKYUjyABqcA1/MBI478Pru76DepTBpavBqJUkAb70Px12wX5JXDua+aZKXlvPPhp8+hv6DgGIH3nt9KlSvF/xN2lxINq+RChFH9KS8kpgIz78CbR8AVqdSoRrMHQeNLsjjwPKJJUvhzBuAdYfea3sXPDEcDi956D1JhcPOXdBtAEx4ar+LJ8GiV+DsMyMWVoHyzbdwazdYtiCVm8fCyF7QsR2U9LVWKuicuinllcVL4K4+sGRu6veb3QLPjIJjyuZtXPnN0mVwxg3AmkPvVT0P3pnkFCOpMPrkc7is40Gbi5wC370Op9eIWFgF0r59MHoc9BoE7E6lwmnwQl9o2QxiY/M4OEnh4tRNKbdt2gwdusHZ56WR5B0Dk56D1yaY5AHUOR2WvQWkksz9/DlUvwjeeDfPw5IUIXv2QJ8h0LDRgUleqVqw8l2TvOwoVgx63gfLv4DzLk+lwo9w661Q5wqYk9rIn6SCwhE9KTckJMAzU6DTYCCNg8DPuAheearwrMXLihU/w2lNOXQn0mQ94uChvsEbFknR6dvvoXnH4EOe/VWuD5+8BiceH5m4okliIjw9GTr155Ddj/92VTMY0d+kWipgnLop5Yb5C+GOvoe+Odlf34EwoLsH16Zn5S9walNgeer3z78CXn3GN3tStElIhDFPQ/f+HDK1sG4jmP1S9J0rGmm/roE7e8LsN9KoEAt33g0De8AJx6VRR1J+YqInhdN/f4Peg+HF59KpVA3mPg2NGuRZWAXa6l/h9GbBDpypqgxzJxTeDWykaLP61+Dw84XvH3qv4bXw9mQ4snSeh1UohELwwivQujewPo1KZWFwN+h8N5Q+Ii+jk5RFoRDEfLcm0URPyoEie/dw4pQJlBkyjDSnvgB7r7mV1cMeZu9RrsXLipLr13HKRc3gr6Vp1IhlR59h/PfOjoSKuOxYKpBCIY6f8QrHdOkJbD7k9t7GN7Fy7DgSS7gbZG47bPNGTu7fl+KzXkyn1ilsHdGbjf9qQVJs0TyLTVLmhUIxJnpSTpRbMJfj7uoDf3yTTq1j2Dp6FOub3gQxMXkWWzQpsXEDp17zL9iUyoG/yfZdeiOrRj9mIi0VMIdt28zJvXpR/IOXUr3/V7P2/DLyUZKKuiY3z4RCHDv7HY69oxewKu16x9Vn4/B+bL64sX/fpHwmFIpx6qaULb+sgq4P7HdgbxrqXQwvPeWRAOGwcTM0aAYrF6Vdp1QtWDAR6tXJu7gkZd/bH0CT+0j9bFGgY2cYM9Rt/iNlyzboOQieeyb9eg2vhUf7w5ln5ElYkjLm8QpSVv0ZDw+MgFPqZ5zk9RsIX7xtkhcuFcrD5zOgRjrrG3d/B2deDBNfCF7hJOVPO3cFR880aUKaSV7fgfDEcJO8SCp3NEx6HN6bBaSz6+aCd+Csc+C2e4KNXSTlC47oSZkRCsGb70DzAZD0QwaVT4N5T8FFbriSK7Zuh8tugm/mp1+vTYfgTWKpw/MmLkmZ8+kXcGWndDZZAkY9Cl3vcTpgfrJzF/R9CJ4cnUHFUtC7M/S4D44+Kk9Ck3Qod92UMmP5CrivP3w0M+O6N7WGp0b4xy23/b4DLm8Fiz9Mv17V8+CdCZ5VKOUHe/bAAyNh2FAgMe16zz4L7W/Ls7CURQs+g+ZdYfPXGVQ8Ccb0hA6t4bDD8iQ0SSlM9KT07NgJQ0fDiNFAfAaVy8GUR+BWN1zJMzt3wdW3pL4N+wHKwYyn4Ybr8iQsSan47gf4V0dY8Vk6lUrCy5PgpqZ5FpayKT4ehjwCw4YD+9KvW6Y2TOgHTa8Dd0aW8oyJnpSapCR46XW4ZSCwMuP69S6Gl8dB1cq5HpoOsms3XN8a5r6dcd3ucTC0LxRz5z4pzyQmwphnoFs/Djn8/AClYdZLcFXjvIpM4fDvb6BlZ/j584zr1rsExgyEC87N/bgkuRmLdIhvvoULrodbbiHjJC8W+g8KNlwxyYuM0qXgnRfg8hsyrjtqGFzUFNaldRDwfpYtz3lsUrTa/Wfm6v26Bi5pDt26kH6SVw7mzTTJK4jOPAOWzYaHhgEl0q+7ZA5ceBE0awM//SdPwpMKOxM9CYINPu7tDXXPhc9nZ6JBDZj/EQyOc4Qo0g4vCTMnw3U3Zlz389nwf41g7idp10lIgEatg6m7kg70039g9FPp1wmFYMpLUOk8WDArgw4rwlfvunlVQVa8OPTpCsu+CEbtMjJjGlQ/CzrHwabNuR+fVIiZ6KlwS0iECc9DufrJO4mls0HA31q0hq3zoOH5uR2dMqtECZg+EZq1ykTl1XDJFTD8sWCa7sE+mgdbl8ILr4Q5SCkKjBwL499I+/iSzVugeVu4/XZgSwadVYMf3vHstWhRswYsegfGPAGUzaByPIx5FCqcAQ+PCY4ukhR2rtFT4fX5YrizDyxbkMkG5eD5R+GWG91wJb/atw9u6wgvT8lc/Wv/BZOfgGP2e1Nycwd4aXJw+Prvi6CoZ3hJQDAVs1JtIB6WfRO8sd/fOx/AdfcDqzLuq0xt+GY6VDo5NyJVpK38Be7ombn10wBUgyl9odW/PDdRChPX6Klw2rAJ2t4H51+Q+SSv3iXwn0/cVTO/K1YMXngKbrszc/XfeQ1OuDTYUABg+45gIx4Izvh6NzPTeKVCYvQ4/rcD8Zv7Tcnc9Udw+Pl1TchUknfKubD8HZO8aHZKFfjoVZg4ETg2Ew1+gtatoVbjYFaFYxBSWDiip4ItITHzIy779sG45+D+IcCmTH6BWBg4EPp2dS1eQZKQCHd3hwkZrCX6n1IwfnTwSXK7dimXG14N89/IlRClAmX9RjihJrAreH7KufCf+bBwEVzTCXZ8m7l+zroM3p964Ci6ott/f4N7esHbr2a+zZVN4eF+ULtm7sUlRTmPV1DBtmETvDwDOt+Vcd25n0C7OFi1OAtfoAYsGAcXnpftEBVBiYnBBjvjHs9Co2OArQdeWvIl1K0TzsikgqfPEBj24IHX7ugIzz5NptY2A1zaBN54DkofEfbwlM+FQvDqG9CiF7Amk41i4Y67YGAPOPH43IxOikomeirYbusEG7fABy+nXWfNWugxGF59Pmt9t7wdxo6AsmVyFKIiLCkJug2Ax0Zmv4+2d8HEMeGLSSpotm6HcqeT8eYq6Wh6M7w4Ltg4SYXX5i3QtT9MnZSFRmVhYBfoeg8cWTrXQpOijYmeCq55n8LFlwLHQcIvhy7e/usveOxpiBsObM9Cx+XghdHBgnDX4kWHUAh6D4YRQ7PZQQn47Sc4vkJYw5IKjCGjYEDf7LdvfSdMGA1Fi4YvJhVs73wA13UHfspCo8rwTG9o08qlFFImuBmLCqY9e6BVz+QnGw48eDUUCv6AHHchxPUiS0neWZfByk/dVTPaxMTA8AHQb2A2O/grOIJDKox27oIBmV3rmorO3WDiYyZ5OtC1V8D2T+Gue7PQaBV06ACVLoK33nfDFikTTPRU8IweB7/9O+X54q+Df39eBdfeEuz8ltmNAQCIhUFD4POZUKVyWENVPhETExxuP+Sh7LUfMAHiPedJhdCzzwPrstd24GB49CG3y1fqjioD40bBnI+C4zYy67d/w/XXw0U3wOIlmW+3bj1s9IB2FS5O3VTBsmo1VDkb2JFy7bY7oeLx8OAoYHfW+ivyD5g/Di44N4xBKl8b8Tj06pH1dpMnQ+uWYQ9Hyrf+jIdSdcnUkQkHe/Qx6HJ32ENSlNr9JwwaAaNGkOnNff7Wqg0M6Q2VK6Vfb+Z78MJ0eG2Cs3ZUKDh1UwVLKASd+nJAkgfw/Hh48AGynOS1agNb5pnkFTY974NOXbLe7qFnnCqkwmXyS2Q9yYuFiZNM8pQ1pQ6HkYPgiwVQuX7W2r74HFSpBz0HBRsHpWXZD/D6VJg+MyeRSgWKiZ4KjjdnwazpYeioHEydCi+Mc1fNwubXNXD7vfDk6Ky3/fnzYBMgqTDYuxc6ZmO32fK14ex64Y9HhcM5Z8Hyj4PlFJTMQsPdMHIYlDsTxjwTrOU/2DfLg39v7AGbnMKpwsFETwXDrj+gae+c91O/cbDhirtqFi6bt0KPQVDpDJgyPvv9PDYhbCFJ+dq06cCPWW+3+WuoVR+69INtv4c9LBUChx0GA3vC0oVwxkVZbLwOOt8HxzQIzu1LSkq5NffvtftroGOcMzRUKLhGTwVDrwdysD0+QCwMfgDiurj7W2EzfyE0up3MH9KbgRXLoVqV8PQl5UcJiXBCgyBpy5GK8Gx/uL0VFHVDFmVDQkIwQtd9ILAr6+3rXQyjB0Dd2nDkMQfee+1VaH59WMKU8iPP0VPB8O33UOccYF/22hevCXPGQYNzwhqWCpBdf8Cnn8Ps+fDCbNi6NPt9de4Box8MX2xSfvPqG3BTi/D0VfU86N0+OPvMWRTKrp9+gfZd4ZP3ste+3iWwZM5BFyvCxs/g2PI5Dk/Kj0z0lP8lJcEF18Pns7PX/tZ28PiwYBtnCYJXvlWr4eMF8P48mDEb2JKFDsrBth9c36nolJQEp10SrEnNspJwVgNofB5ccDacUx+OKRv2EFVIJSbCxBegQ1+y9pqdjhtvg5fH+yGEopKJnvK/56ZB2zbZaFgOpo2BFs18AVf69u2DL76Cj+bDW3Pgm/kZtxk9BjrflfuxSXnt7Q+gSZNMVi4DFzeES84NZkycVQ9Kl8rV8CTWroMO3eG9GeHpb/pr0CyzP/NSwWGip/xt81Y49hxgbdbb1rsEZk6E/zsh7GEpym3aDHM/CaZ5TpoN/HJonSL/gD2LXe+p6BIKwVlXwZK5aVQ4Dq5rCBedG4zY1a0DxYvnaYgSEPysTpsOt8SRrfcIB6gImz6H8uXCEZmUb5joKX+7sys8OzYHHVSEt5+Ea68IW0gqZJKS4Lsfgmmes+bCx7OBv4J7M6bDDddFNDwprD6eD5ddvt+FytCiIVx4LjQ4G2rWcFMV5S8bN8N9feDV53PWz02t4aVnnAGkqGKip/xr4SK4oGF4+urcA4b1gxIlwtOfCq9du2Fh8qYuO3bCxGycMyblV+3uD97oXnA2nH8uVK3sG1/lf6EQzHwPbugOrMx+P6+/Bk2dwqnoYaKn/GnfPqhxGaz8Inx91m8M7052aoYkSdFo2+/BUUwTnspmB5Vg00LfJyhqmOgpfxo9Drp2zkbDKnB+VaheCU45GaqcDJVOhkoVoUJ5KFIk3JFKkqT85MO5cPndwKqst23RGqY5hVPRIRQCdxJQ/rJ2HXQdksbNEnBCTahXBU6tFCRzlSoGj5MrutubJEmFWVISLP0eWJO99i9PgRuvc/21ooYjespfOnSDr36Af1SCUypB5YpQ+eTgcfxxbgQgSZIOtXMXtL0fXn8xhx1Vgk2fQfljwhGVFDFO3ZRUeG3ZFqzpAKh8EhQrlvU+Nm+F7TtSnh9XHo4sHZ74JEmZs3wFXNEW1n4Vnv5a3g4vPu0UThVooRC4aElS4TP1VShfC6rXCB6rsnEO067dcNxlKX1UrwHvfhD+WCVJaft1DdwTB2t3Atn4wC41L02GN2eFpy8pglyjp7Rld8Tjl1WQEILDS3hgufKXHTvh3t7wwsSc9zXgIUj6Ief9SJKy7+SKMHdGUE5IhK3bYMPG4Iy9DRthwyZYvwl+2whrN8C362H3amBX+v027QabznUKpwo0Ez2lbuqrcGsXYEvwfMVyqFYl/Ta/74B7egafhAFc2gQ+ei03o5Qyb9FiuPRu2P1d8oUawPLs9fXZl/DYY0G5RetgAb8kKbKKxga7bFcon369UCiYdr9x/4RwM6zfGDzWboCfNsCAYTBuVN7ELuUCEz0dKLsjHgsXQcO7HOFQ/hMKwbDR0HcwEA8cD9NGQfweaNc26/3t2QM3dwUS4YyLoFcnEz1JKkhiYuDoo4JHjeq5+7V27IQ5nwS7isfHw4nHQ4OzoXKlrPXz9VL4bnkw26rU4XDC8dDwPChzZG5ErShhoqcU2RnxSEiEYY/CgAeAfcCxQCywPjcjlTLvz3joGxeUG14LUx+Hk06ESdncmW34GPh1MVACpox2sb4k6VA7dkLfh2DsFGD7ofcvbQJPPZzxbKmZ78EdD8Dmr1O5WQra3QbD+nnQu1LlZiwKRjyGPgrnNk5O8o6HaS/CxB7pt1u7Di66AQb0A/ZBgyth1adQu2peRC1lQSl4ZDTMfS1I8rJr2XIY9FBQHtwPatcMT3iSpOixdh0c2wjGPkaQ5JWAU86B+o2B44M6H78F1c+Hzxen3U//ofDPf+6X5FWBuo3gpLMINp7ZDRPHwXGNYZ0fsOtQJnrab8QjPhjxWLMQWjbPuN2b78JnHwAl4OGRMH8GVDo5t6OVsqZ4MfhmAXS9B4rk4CUvMRFadwX+gqrnQa/7wxaiJClKJCTA1bfD3u+BWOgRB5tWwn8WwJfvwF8r4KFhyZW3w/m3wq4/Du1n+kx48IGgXLwmzJ8bLI9Z8kHwPm3LWri3a3A/6Qdo0zkPvjkVNE7dVLJS8MiD0PmurL0ZPrk+vDEW6tbJvdCknChWDOqcnvN+xk6EJXOAYjBtNBQvnvM+pUjLzu7KoRAsWQo//Qd+/W+wXujUynDRBXB4ydyNV8rvXnsTli0IysOGQu+DErDDDoM+XYP3WnG9gFXw/MvQsf2B9bqOCP494Uz4blawnnB/x5SFx4cFu4m+/iJ8+GbwO1nt1Fz5tlQwOaKn7I94XHIhLP/QJE/Rb/WvcP+goBzXC86qG9FwpLDIznmS73wAtS+Hs86Bm1sFvw/33QtXXwulToUHRgQbTkiF1SvvJBeqQreOade7vwOQfHTDp18eeO+XVSmHvw+999Akb3+37DcDa/nPWY1WUc4RPWV/xKNmjfDHIuVHHXoBW+GYOtC/e6SjkXImu7srjx4HXfcfnSgDJ1WFtauArcAWGNQfPlwIs6bCkaXDGLRUQGzYApwIbS5Jf4S8ZEkodQLs3gqbD9qs5bASMCV5N+erLkv/6x15RI7CVXQz0ZOk9Lz4Gsx+Iyi/Pjr44ywVVNk9T3LKSylJXpna8PJwaNwIYmMhKQm+XQZ39YFFH8LC96FzX5j0eC59E1I+9sU7GdeB4Kie3T8G5ToHfXB+4vFwW4vM9bP4741aYqFuGJYpKKo4dVOS0rJ5K9zSJyjfdS9c1CCy8UjZld3dlQF27YbbkzeF4DRYMQuuvDRI8iCY8n9GbVg4E85pHFx77hn49vvc+E6k6PD+HIJjqYBz62Wvj59XQe8ng3LrdlDxpLCEpuhhoidJaenWH1gDVIPhAyIdjZR92d1dGWDcRGBVUP5wDFQon3q92Fh4eijUuyR4fPVNOCKXok98PLTqH5TPuAiaXpdxmz17gsef8UGC99jTUO1SYA1cfgM8MSzDLlT4FF22NinSMSifOmE7HJ1cXrUxxO6SmftZqbE3ODI94S/40Z8v5VMZ/XyXmz+H45LXMG2cNILNO4+AnYf+PB+5MUTF5PLmbbDRn3nlQ0X/TOI0juD3AYNZ17YDIYrA2qRMvc7XmPIOsUCo4nl8X70hpPczfszpwdE7f/P3QTpQKETVLt04bPd3QCxrHxzOjt9igLR/V4r/vp1qtU846Gox9ja5mS2tWrHt3Avg9xj43d83pQiFYlyjJ0mpKTfh740qjuDoF6dx9IvTUq1XZOeulDaPPsVRb8wEYPM9d7Gt/nm5HaaUKUnFi/Hr7HnsOq1mltoV37mD2B8+BeCPm67NjdCkQqXyiAc5bEbw92VH/xHsqH1GNnvaR/FZX3P0YYeReMSR7KjlDug6VNHTT3L2ptJQNqVYuUIMZPZnJfl4saIlwJ8v5VsZ/XwXTUgu/EGxj1/NVJcxvyyk2C9B+YQ7m3KCP//KNw6DyrUOvZzR78Hsb4BEAEpfUT94Td+zB56bBu/Ng5/XQqmSUPX/oMnlcMO1wTlhkg71xHgYOzQod+1FmcGdKJOZdiccBd8mb7qSlAS/rQ+OUug2nhKvjeek157jpIcGB+fzSclCIXfdlKTU3XAFnJ6Jg2e3bIcXnwvKl10PNU8JyqdWyb3YpLyyYWNK+dTKMG8htOwOG5YcWO8r4KXJULwmfDoB6mdzcwkpWk16MThzEqDl7TByUObbxsZCrX+kPK9zOlzVGDq1h5vvhtenBmtwz6oLl18czqhVwJnoSVJqOrbPXL3vfkhJ9NremPkNLqSCYNvvKeX/roeLrwd2QeX6cNPlUK4s/LYZnpkV7Oa593s4+zL44gM4p37EwpbylVffgHZ3BOXG/4TJTwS71eZU8eIwcTS8Ph9YC4MfM9HTAUz0JElS6rbtd5Dz9fcCSfDcc3D7zQfWGzkIRo+F7t2B3XBue/jjcyh1eB4GK+VDb38AN7UBEqHRNfDm5CBBC5cyR8KV9eH9tbBwSTBfLyYmfP2rQHMBiSRJSl2x/T4P3roUxj1yaJIHwehEt3uhd9/kCz/C9Jl5EqKUb308H5q0AuKhwZXwzlQ4vGTG7cZPho49g7MvM6Pi3ztyboW9e7MZrKKRiZ6kwqlIDFAyeOTk08+YMPUj5UdlDtoqov1t6dfv1gkoFZRnvJ8rIUkFwsJFcFlLYBfUbwyzpmZ+hHvdBnhqDPQdCps2p183FIIPFyU/qeZmSDqAiZ6kwun2myH0e/CoWjn7/ZxeI6WfFs3CF5+UH5Q/+sDnRWPTr1/uaDgleXfP71flTkxSfrdkKVxwI7AV6jaC2S/CkaUz377pNQQnEu+Cu3tCQkLadZ+aBKsWB+V+N2Y/ZkUl1+gpbf8b8SBrIxVFiwbtYjN4QyBJyt/q7Xc215VNM9fm6NKwEtgSnyshSfna98vhzObAhuD5nS1g9pyM211zRcqIX51acOfdMP5JmDENzv4NBtwPFzWAsmUgIRGWfQ/jpgR1INjx9v67cuVbUsEVEwqFQpEOQpIkRcCkF6Fd26C8YjlUO+hYkFAIivwD+AVObwjffZh+fwmJUOw0YA00vBbmv54bUUv511Ut4f0ZWW/3ywqoXCnleUIC3NYxOLbkAGWBnfx9viUAZWrDl68c+vurQi0UcuqmJElKS0wM9LklKC9bAF/+O/36b70LrAnKF5+dq6FJ+VJSiP+t287K4+CZU0WLwrRnYOZMuPAqgqmcANv5X5JXvCYMeQh+W2CSp1Q5oidJUmGV0Yge8P/t3Xm8T3Xix/HXxbVOyRYxyjKU0qp9kWVUWrSqpJSUlsk01KOplGlo2gjJSCqTImkqNcoy0sIvEklEoiSidF1rti73+/vjaK7l7u79nu8939fz8biPOd9zPuf09sfcx31/P+d8DitWwqHNgHVQ6wSY+x+oWWPfcYuXwuFtgWVABVi+AOrWKb7sUjJJS4fvlsGadKhYCWofEjxf7iJgyoEzepIkKXd168ALTwbbP82BWq1g+MhgNcDMzKAIDhwKh7ckKHnAoCcseVJRqlENTm4G558DLc4IvpSx5CkPLsYiSZJyd2NHWL8B7robWAxduuw6UJo9nhWiNPTqBd26xj+jJGkPzuhJkpSsCvI+yR63w/SP4I8Xk/W80G8lr3Sw//1J8Pd7iy2uJCn/fEZPkiQVTNoamL8QNv4S3FLWoB4cUjPsVJKkXWIxi54kSZIkRYqLsUiSJElSBFn0JEmSJCliLHqSJEmSFDEWPUmSJEmKGIueJEmSJEWMRU+SJEmSIsaiJ0mSJEkRY9GTJEmSpIix6EmSJElSxFj0JKko/PMFePGVsFNI0fDiK3D/w7B5S9hJJKnEsuhJ0v5a8h3ccRfMmht2Eika0tPh0T5wWAuYNiPsNJJUIln0JGl/PfAIsBU6dwg7iRQNd3WD55+H9MXQvAV0f8DZPUkqoJRYLBYLO4QklVgzZ8GpZ0KTM2DBFEhJCTuRFB3vT4XWnYAfofIx8PZAOPuMsFNJUsKLxZzRk6TCi8WgR59g+y+dLHlSUWvVHBZNhmrHwoZ50KIV/OU+2PRL2MkkKeE5oydJhfXWeLj0UqAKrPsaDqocdiIpmtashctvhqnvBJ8rHQ3vDIQWZ4abS5ISlDN6klRYGRlw267ZvC5XW/Kk4lS9KkweDTfdHnzePB9atoZu98LGTeFmk6QEZdGTpMIYPgp+mhNsd+kYbhYpGZQtC8P6Q7/+WfsGD4AqzWHKR+HlkqQE5a2bklRQGzbCQScBy6DhKbDkI5/Pk+Lp7QlwSWdgXda+2/4Mjz4IlQ8MLZYkJQpv3ZSkwug/BFgWbHd3ERYp7i5uC3MmAY2z9j0zCA5qDpM/CC2WJCUSZ/QkqSB+WAV1jwM2AAfAmiVQrUrYqaTktPJHOL8TzJu65/6ud8DjvXx2VlLSckZPkgqqdz+Ckgd06mDJk8JU5xCY/jZcvtdzssMGQ5UzYeKUcHJJUgKw6ElSfs1fCM8NzfrcpUN4WSQFKlWEMc/B/b32OrAY2p4PN3eHdRtCiSZJYfLWTUnKj1gMLrgGJrwZfK51Aqz8GEr5fZmUMEaMhhtuBbbtdaAxTBgA5/0xjFSSFHfeuilJ+fX+1KySB/DX6y15UqK5vgN8NAGou9eBxdD2AuhyJ6xdH0YySYo7Z/QkKS87d8Kx58KCabt2lIefv4Ua1UONJSkHS76DFh1h1WfZHGwE456EC8+NeyxJihdn9CQpP159c7eSB3S42pInJbJG9WH+eGjdLpuDS+CidnB9N0hfl81xSYoGZ/QkKTdbt0LFU4FFWfumTIZWzUOLJCmfMjLgz/fB0KdzGNAA3uofvJdPkiLEGT1JysuQ59mj5FU+BlqcGVocSQWQmgpD+sLAQUDpbAYshUsugetug7T0eKeTpGJl0ZOknKSlw9399tz3gIuwSCVKSgrceQuMGwvkcMv1yOFwVhmkqAAAEBVJREFU8Bkw9t3ga3BJigD/WpGknDz2FPDTbjtSoWP7sNJI2h8XngtzJwFH5DDgO7jsMuh4K6StiWcySSoWKfOX7/SrK0naS8Xvl9HgrBOArf/b9+v517J46HPhhZK038qlraZhp86UWvBBLqPqkfbsE6w+78JgRlCSSphYLMUZPUnKzu/7PsbuJQ9g7TXXhBNGUpHZXqMmi998g1/bXZ/LqGXUuOVKGt9xK+XWpsUtmyQVJVfdlKS9zZwFp+614EqpI2H7bCiT3YIOkkqczEzo3Rf+3iuPgYfCa33hioud3ZNUYrjqpiTtLRaDHn323d/nOkueFCWlSsFDf4VXRgGVchm4HK68CtrfBKud3ZNUcjijJ0m7e3tCsNz6HkrD8iVQt04okSQVs+mfwhkdgeV5DKwLrz4BV17q7J6khOaMniTtLiMDbu297/527S15UpSdfjIsnQz1T8pj4Aq4ugNc3hl+XB2XaJJUWBY9SfrN8FHw05x999/sIixS5NWvB3PehfMuy3vs2NFQ+zQY/brv3ZOUsLx1U5IANm6CyicCy/Y60BgyPocyZUIIJSnuduyAHg/C0/3zN77d1fDM41C7Vu7jvl0K6evg5Gb7n1GS8uCtm5L0m/5D2LfkAQ9dZ8mTkkmZMvDUIzB4CJCPBZj+8yrUORVeHpP77N7kj+D+x5wBlBQ3zuhJ0sof4ffHA+v2PbZsCRx2aNwjSUoAE6dA207AmvyNP/8KeLYv/L72vscu6AjjX4f334OWZxVpTEnamzN6kgTw975kW/LaXmbJk5LZea1h/ntQ9qj8jR//OtQ9DUaM3nPmbstWGD852L77EWf1JMWFRU9Scpu/EJ4bmv2xm6+NbxZJiadpE1g+CU5qk88TfoIbboALroEVK4Nd02YAG4LtOe/DuEnFEFSS9uStm5KS2/nXwIQ3sjnQAH6dB6mpcY8kKQFt2wY3d4eRwwtw0sEw/HGYtxAG9s3a3fAUWPQBlMnHM4CSVAixmEVPUjJ7fyq0zuFb+p5/g4fvj28eSYktMxMe6Q8P9izgiaWBnXvuemUUdLiiqJJJ0h4sepKS186dcOy5sGBa9se/+QoaNohvJkklw2tj4aqbgU2Fv0alo2HtdChbtshiSdJvXIxFUvJ6bWzOJa91O0uepJxdeSl8MhGoX/hrbJ4PL75SZJEkaW/O6ElKPlu3QsXTgK+yP/7aGGh/SVwjSSqBvl8ObTrBkhmFvEBD+GU2VKpYpLEkyRk9SclpyHByLHkcCu3axjONpJLqsENh9rjg/XmF8i0MfaFII0nSbyx6kpJLWjrc/UTOx++5FsqVi18eSSXbgQfA2y9B93sKd/7dA2DdhqLNJElY9CQlm8cHAT/lfLxzh7hFkRQRZUpD/z4wbBjBCpsFsRIGPlMcqSQlOYuepOTx7VJ4cmDOx89qC0c0jl8eSdHx42qY8jH7vEYhP3oPgtVpRR5JUnKz6ElKHg88BmzL+fht18YtiqSIyMyE4SOh9ikwZkQhL5K+624DSSo6rropKTnMnA2nnpHLgDqwZQFUqBC3SJJKuEWLoes9MG1CEVysPCybHyzwIkn7yVU3JSWHWAzu6pP7mO4dLXmS8m/HTpj+KTSuBw1PoeDP5u1tGzw8oAiCSVLAGT1J0bBpM6xaBYc32vfYfybCxRfnfv78udC0SfFkkxR9m36BeQvg83kwax689xms+qyAFykNCz+HJocXS0RJySMWs+hJior0dVC9OSwdB/XrZe3PyIB6Z+f+B9dJbeDTd4o7oaRks34DfPElfD4fZs+FiXMg/Yvcz7myE4x5Lj75JEWWRU9SdKxdD9VqQtmj4JtxULdOsH/Yi3DLLbmfO2IEdLq62CNKEmvXwxfzYc48mPUFjJ0Nvy7Yc8zsmdDsuHDySYoEi56k6Fi3AaoeHGzXOB6+eBsqVYTKJwLLcjnxYPjl62CsJIUhbQ3M3a38HXQgPJ/Lq2AkKQ+xGJQJO4QkFYmU3bbTPofTLoeLziT3kgd0u9aSJylcNapDm5bBjyQVEWf0JEXD+g1Q5eCCn/f5LDjumKLPI0mSFBJfryApOlJS8h6zt+POhmOPLvoskiRJIbPoSYqGwhS9bp0Kd54kSVKC8xk9SdFQmMK2YhW8PAaqV4WqB0GValCtClSpDKX8HkySJJVcPqMnKRo2bYYDq+7/dbreAYMegXLl9v9akiRJIXDVTUnRUWp/b8FMhcED4fYu3s4pSZJKPIuepGjYr3JWB977F7Q+u8jiSJIkhcmiJym5HXYSTH4ZGtUPO4kkSVKRcbUBSdFQmAm9C9vD3HcteZIkKXIsepKioaC3bt73IIwdAQdVLp48kiRJIfLWTUnRkO+idwCMfAY6ti/WOJIkSWGy6EmKhnwVvUYwcwSc3KzY40iSJIXJWzclRUNeRe+ElvDDZEueJElKCs7oSYq+67rAs09ChQphJ5GkvK1ZC2vXB9v160Jqat7n/JwG02fByh9hxw6oVQNOON7FpqQkZtGTFA05zej16wc97vAl6JJKhpGvwXXdgTXB56+/gsYNch6/eCnc1QveeQvI2Pd40+bw9N+gxZnFkVZSAkuJxWKxsENI0n7bsRNSK+62ozqMfxHatgkrkSTl34aN0O1eePmFPffnVvQ+/D9oeRmwYdeOatD0KChbGuZ8CyzPGvvU0/DnrsUQXFIiisV8Rk9SVOw+YVf5GFgwxZInqWSYOQvqtNqt5DXJ+5y0NdCyA0HJqwyDh8Dmb2H+ZPhsImQsgrfeAhoF4+/sBh9+XDz5JSUkb92UlNjy+6zKb7dmtm4HfR+E+QvhvalQKgVq1oDTTobf145PZknKj1gMHh0APXsDW4FD4JV+sHU7dLkx93OH/gv4Odge+c99XxlTpjRc3Ba+rAdNTwuu//hgaHFGkf8zJCUmi56kxFWQZ1VSUqDjDbB8NZxwUvZjWlwAT/8Dmubj23JJKm5btkLP+4Lt5hfCyEFQtw4MH5X3uTPm7NpoCB0uz3ncUU3g0ktg7GiYOHu/I0sqOcp8uSIz7AyStIfUXzZy2IM9Kf/G83vs/251jM0Vsv+dVeO9SdQcNYbgW3GAmsT+0Ah2ZJKy7GsgHT58F46exqp/j2XtKacX679BkvJSZksmR/A71vfqzcobbyFGKViRSe11UHXXmJx+7x2xOUYZIFavJgtWAuT891zD31UjWHN4B/7dJyWHWCzFGT1JiaXK3NnUuexPsGPerj1HAgtzPafi98uoeWMngpJXg/RB/Vl90SVklg5+xZXavo1DXh9Dlfu6Axup3f5GNi6aw46KFXO7rCQVq8yyqXz/3w/ZdMRRBT5363FHc8DUsaQs+5Jya9PYXrVGtuNSMjOp8P5MAHacevx+5ZVUcqSkxCjTtK7rsUhKAPl4VqV+zRTI7ndW76eBjUBl+HIy1Y5qQrU9BlSEeztD+e3Q/U7ge474ZBxc36GY/1GSlJtyUP/ofXdXydrM8ffevTfBoCHAGhr1uQ9GP5v9M8z/GAArZwFQ5uE78e8+KXn4/3ZJieF/z6psDZ5VWf4xdLgif+c+PzH4367XBc+j5OTqy7K2Fy4udFRJCt0hNeGDMUAteGMUNGkNQ4bD1OkwY1bwjPMf28MD9wOlYfA/ofXZYaeWFEfeuikpgVSCJx+Gv9wKpfL5PVRGBoz4W7Dd7Njcxx54wP7Fk6RE0uJM+OETeOwpGDwA/jRz3zFtLoEnesJxx8Q/n6RQWfQkJYayqTB3KhzbtGDnpaZCp6vzN3bmbivOnZhHKZSkRLd2PTw+CAa/nPOYyZPgoQrwRK+cVy2WFEneuikpMaSmFrzkFcTmLdCjT7B92EnQrm3x/bckqbitWAmNz4Gn+wNroGPn4AXpX82Hb76CKZPhrnuBsvD2aDj8LJg2I+zUkuLIGT1J0ZORAZmZwQIva9bCtOlwd39Y9RlUPgb++xKUKxd2SkkqnFgMOv4J0r8ADoAJY+C81nuOadgAWjUPnl0+/FJgMTS/EdZMh2pVsruqpIhxRk9S9BzeEsofCBUqQ936cE1HOKwavDIKfprm7UuSSrbpn8K0CcF273v3LXm7a/wHmDBg14elwSItkpKCRU9ScpixCP79Doz/b9hJJGn/fPJp1vbF+bgNvU1LoHKwPS2bBVskRZK3bkqKnokvwfZtwXbaGli6DIaMgrGjg5/Lr4XRQ7N/55QkJbot27K2D6iU9/jSpQmK3gbYvLW4UklKMM7oSYqexg3g6CODn1bN4aZO8NlEePTx4PgbI4PlyCWpJGpQL2t70gd5j581B1gebDeql9tISRFi0ZOUHFJS4K93Bi9jB+j1CPz6a7iZJKkwzm0NVA+2b3sEvvo657HrN0Dne7I+X3FRsUaTlDgsepKSR0oKnHP6rg+bYdGSUONIUqFUrwoDe+36sByObAV9+gWFb8eOYNXhFSvhuRFQpTksmBYMvep6aH56jpeVFC0+oyepZHvvQxg7Pth+sjeUL5/7+Lp1srbXrS+2WJJUrO68BTZvhp69gDXQq2fwQ2mgLLDXs3hXXQ8vDY5/TkmhcUZPUsm2MxOGPBX8fPhx3uM/+Sxre/fnXCQpUZRKASoEPykpOY+7vwd8MTN4WToH79q5k6ySVx7OuRQmvAuvDoOyZYsztaQEkxKLxWJhh5CkHA0fBV1uDLa//mrfd+Bt3gK/awYshbonwuy34OAa2V9r5iw4tS2wCc5qC1PfKs7kkhQ/27fD4m/h5zTIyICaNaBBfah8YNjJJIXEWzcllWyVKsJLD0GnTrBiNtRsBcPuhrZtoM4hwZhl38PoN6FnP2ATUBn6PRhiaEkqYuXKBSsNS9IuFj1JJd91V0FaOtx1D7AYunbddaASwW1Mu71zilowbhic3CzuMSVJkuLFZ/QkJbb8PqvS43aYOwMu70jwYmCAzWSVvDpwazf44RO48NziTCxJkhQ6n9GTFD2bNsM338DP6UFRrFUTjmgEqalhJ5MkSYoLi54kSZIkRYy3bkqSJElSxFj0JEmSJCliLHqSJEmSFDEWPUmSJEmKGIueJEmSJEWMRU+SJEmSIsaiJ0mSJEkRY9GTJEmSpIix6EmSJElSxFj0JEmSJCliLHqSJEmSFDEWPUmSJEmKGIueJEmSJEWMRU+SJEmSIsaiJ0mSJEkRY9GTJEmSpIix6EmSJElSxFj0JEmSJCliLHqSJEmSFDEWPUmSJEmKGIueJEmSJEWMRU+SJEmSIsaiJ0mSJEkRY9GTJEmSpIix6EmSJElSxFj0JEmSJCliyny5IjPsDJIkSZKkIuSMniRJkiRFTEosFouFHUKSJEmSVHSc0ZMkSZKkiLHoSZIkSVLEWPQkSZIkKWIsepIkSZIUMRY9SZIkSYoYi54kSZIkRYxFT5IkSZIixqInSZIkSRFj0ZMkSZKkiLHoSZIkSVLEWPQkSZIkKWIsepIkSZIUMRY9SZIkSYoYi54kSZIkRYxFT5IkSZIixqInSZIkSRFj0ZMkSZKkiPl/Xmpwjxjt8RoAAAAASUVORK5CYII=;" vertex="1" parent="1">
                    <mxGeometry x="30" y="70" width="600" height="281.8" as="geometry"/>
                </mxCell>
            </root>
        </mxGraphModel>
    </diagram>
</mxfile>